<?xml version="1.0" standalone="no"?><!DOCTYPE svg PUBLIC "-//W3C//DTD SVG 1.1//EN" "http://www.w3.org/Graphics/SVG/1.1/DTD/svg11.dtd"><svg t="1506000803366" class="icon" style="" viewBox="0 0 1025 1024" version="1.1" xmlns="http://www.w3.org/2000/svg" p-id="1814" xmlns:xlink="http://www.w3.org/1999/xlink" width="32.03125" height="32"><defs><style type="text/css"></style></defs><path d="M242.70037842 189.90008545h257.50030517c50.99990844 0 88.99996948 2.0994873 114.00018311 6.39981079s47.50048828 13.10037232 67.20007324 26.60037231c19.80010987 13.5 36.29937744 31.40002441 49.39974975 53.80059815s19.80010987 47.50048828 19.80010987 75.40026856c0 30.20031738-8.09967041 57.89987182-24.40036011 83.0994873-16.29986573 25.19961548-38.29998779 44.09994507-66.10006713 56.70016479 39.30029297 11.40051269 69.40008545 30.89987183 90.50042724 58.40002442 21.09951782 27.50015258 31.60025024 59.90048218 31.60025024 97.09963989 0 29.29971313-6.80026245 57.79934692-20.39996337 85.49972534s-32.20010376 49.79937744-55.80038453 66.40081787c-23.59945679 16.59979248-52.69976807 26.70007324-87.19958495 30.49942016-21.70019531 2.29971313-73.99951172 3.79934692-156.89959718 4.40002442h-219.20031738v-644.29953002ZM372.79937744 297.09918213v149.00015259h85.20062256c50.69998169 0 82.19970703-0.70037842 94.5-2.20001221 22.30087281-2.59963989 39.79962158-10.29968262 52.49954224-23.10012817s19.09973145-29.50076294 19.09973144-50.29953004c0-19.89981079-5.50003052-36.09997558-16.50009155-48.5996704-10.99923706-12.40081787-27.29992676-19.99951172-49.00012207-22.59997559-12.89932251-1.50045776-50.00042724-2.20001221-111.20031738-2.20001221h-74.60018921ZM372.79937744 553.30007935v172.29968261h120.40081787c46.89981079 0 76.59997559-1.30023193 89.20019531-3.99957275 19.29995727-3.49942016 35.09967041-12.10006714 47.19973755-25.69976807 12.19976807-13.6005249 18.19912719-31.900177 18.1991272-54.70037841 0-19.29995727-4.69912719-35.7003479-14.10067749-49.20034791-9.39990234-13.5-22.89990234-23.29953003-40.60052491-29.40023803-17.70062256-6.19958497-56.20001221-9.19967651-115.39929198-9.19967652h-104.90020752Z" fill="#333333" p-id="1815"></path></svg>