<?xml version="1.0" standalone="no"?><!DOCTYPE svg PUBLIC "-//W3C//DTD SVG 1.1//EN" "http://www.w3.org/Graphics/SVG/1.1/DTD/svg11.dtd"><svg t="1506059084472" class="icon" style="" viewBox="0 0 1024 1024" version="1.1" xmlns="http://www.w3.org/2000/svg" p-id="1165" xmlns:xlink="http://www.w3.org/1999/xlink" width="32" height="32"><defs><style type="text/css"></style></defs><path d="M785.00607808 736.48158264c5.25283813-5.33008576 11.43264771-10.42842865 18.53942871-15.37227631 7.10678101-4.94384766 14.75429535-9.88769531 23.09703827-14.83154296 8.34274292-4.94384766 16.60823823-10.11943818 24.95098114-15.60401918 8.34274292-5.484581 16.37649536-11.27815247 24.10125733-17.53520964s14.67704773-13.05484772 20.77960968-20.47061921 10.96916198-15.52677155 14.5998001-24.33300018c3.63063813-8.80622864 5.40733338-18.69392395 5.40733338-29.58583832 0-8.80622864-1.54495239-18.07594299-4.55760956-27.88639069-3.01265717-9.73320007-8.26549531-18.77117157-15.60401916-27.03666686s-16.99447632-15.21778107-28.89060975-20.62511445c-11.89613342-5.484581-26.80492402-8.18824768-44.49462891-8.18824768-16.37649536 0-30.74455261 2.62641907-43.02692413 7.95650482-12.35961914 5.33008576-22.78804779 12.66860962-31.43978118 22.0155716s-15.06328583 20.4706192-19.31190492 33.29372406c-4.3258667 12.82310486-6.41155243 26.80492402-6.41155242 41.86820984h47.43003845c0.30899048-9.57870484 1.31320954-18.53942872 3.08990479-26.88217163 1.77669526-8.34274292 4.55760956-15.52677155 8.34274291-21.6293335 3.70788575-6.10256196 8.72898102-10.89191438 14.98603822-14.44530487 6.25705719-3.47614289 14.05906677-5.25283813 23.48327636-5.25283813 10.27393342 0 18.61667633 1.62220001 24.95098115 4.86660003 6.41155243 3.24440003 11.35540009 7.26127625 14.9860382 12.05062867 3.63063813 4.78935242 6.02531433 9.96494294 7.26127625 15.60401916 1.23596192 5.56182862 1.85394287 10.81466675 1.85394286 15.75851441-0.30899048 10.66017151-3.16715241 20.0843811-8.72898101 28.27262878-5.56182862 8.18824768-12.59136201 15.7585144-21.2430954 22.7880478s-17.99869538 13.59558106-28.27262878 19.698143c-10.27393342 6.10256196-20.0843811 12.43686677-29.50859069 18.92566681-19.69814301 12.43686677-35.22491455 27.11391449-46.58031464 44.03114318-11.35540009 16.83998108-17.22621918 36.6153717-17.45796205 59.17167665h198.91262055v-39.7052765H774.19141133c1.9311905-5.94806672 5.56182862-11.58714294 10.81466675-16.9172287zM564.30962881 478.01104737H205.72617848V215.36914062H137.82552083v593.26171875h67.90065766V545.98895263h358.58345031v262.64190674H632.21028646V215.36914062h-67.90065766z" fill="#333333" p-id="1166"></path></svg>