<?xml version="1.0" standalone="no"?><!DOCTYPE svg PUBLIC "-//W3C//DTD SVG 1.1//EN" "http://www.w3.org/Graphics/SVG/1.1/DTD/svg11.dtd"><svg t="1506059076028" class="icon" style="" viewBox="0 0 1024 1024" version="1.1" xmlns="http://www.w3.org/2000/svg" p-id="1044" xmlns:xlink="http://www.w3.org/1999/xlink" width="32" height="32"><defs><style type="text/css"></style></defs><path d="M902.40233612 667.34496308c-8.49723816-12.12787628-20.39337158-19.69814301-35.68840027-22.71080019v-0.77247618c12.9776001-4.55760956 22.47905732-11.89613342 28.58161925-21.93832398s9.19246674-21.86107636 9.19246675-35.30216216c0-11.74163818-2.39467621-22.09281922-7.26127625-31.13079073-4.86660004-9.0379715-11.27815247-16.45374298-19.23465729-22.32456206s-17.07172394-10.35118103-27.11391448-13.3638382c-10.04219055-3.08990479-20.31612397-4.55760956-30.74455261-4.55760955-13.51833344 0-25.56896211 2.31742859-36.22913362 6.87503814-10.66017151 4.55760956-19.77539063 10.96916198-27.26840972 19.08016205-7.49301911 8.11100006-13.44108581 17.76695252-17.76695252 28.81336213-4.3258667 11.04640961-6.72054292 23.09703828-7.26127624 36.07463836h43.49040985c-0.23174287-6.87503815 0.54073334-13.59558106 2.31742859-20.0843811s4.48036193-12.35961914 8.18824768-17.53520967c3.70788575-5.25283813 8.34274292-9.34696198 13.90457154-12.43686676 5.56182862-3.08990479 12.2051239-4.55760956 19.85263824-4.55760956 12.2051239 0 22.17006683 3.47614289 29.97207641 10.35118105 7.72476196 6.87503815 11.66439057 16.06750489 11.66439057 27.50015257 0 8.11100006-1.69944763 15.06328583-5.17559052 20.62511445-3.39889526 5.63907623-7.95650482 9.96494294-13.51833344 13.20934296s-11.97338105 5.40733338-19.08016205 6.7205429c-7.10678101 1.23596192-14.21356201 1.77669526-21.39759063 1.5449524v32.44400024c8.6517334-0.23174287 17.07172394 0 25.33721925 0.77247619 8.26549531 0.7724762 15.68126679 2.70366669 22.32456206 5.94806672 6.64329529 3.16715241 11.97338105 7.80200959 15.99025727 13.90457153 4.09412384 6.10256196 6.10256196 14.36805725 6.10256194 24.7964859 0 15.29502869-4.86660004 27.03666687-14.67704773 35.30216218-9.73320007 8.18824768-21.86107636 12.28237152-36.38362884 12.28237151-17.07172394 0-29.81758117-5.40733338-38.31481934-16.22200012s-12.51411438-24.41024781-12.05062866-40.70949554H726.66400146c0.23174287 13.98181915 2.39467621 26.72767639 6.48880005 38.23757171 4.09412384 11.43264771 9.96494294 21.2430954 17.76695252 29.43134309 7.72476196 8.11100006 17.45796203 14.44530487 28.96785736 18.9256668 11.58714294 4.48036193 25.10547638 6.72054292 40.63224793 6.72054292 12.74585724 0 24.79648591-1.9311905 36.2291336-5.71632386 11.43264771-3.78513337 21.47483826-9.26971435 30.12657165-16.22200012s15.52677155-15.52677155 20.62511445-25.5689621 7.64751435-21.47483826 7.64751434-34.2206955c0-17.38071443-4.24861909-32.13500977-12.74585725-44.18563843zM562.97629547 478.01104737H204.39284515V215.36914062H136.4921875v593.26171875h67.90065766V545.98895263h358.5834503v262.64190674H630.87695312V215.36914062h-67.90065766z" fill="#333333" p-id="1045"></path></svg>