<?xml version="1.0" standalone="no"?><!DOCTYPE svg PUBLIC "-//W3C//DTD SVG 1.1//EN" "http://www.w3.org/Graphics/SVG/1.1/DTD/svg11.dtd"><svg t="1506000749621" class="icon" style="" viewBox="0 0 1361 1024" version="1.1" xmlns="http://www.w3.org/2000/svg" p-id="984" xmlns:xlink="http://www.w3.org/1999/xlink" width="42.53125" height="32"><defs><style type="text/css"></style></defs><path d="M507.64688753 513.38913931a106.36838324 106.36838324 0 0 1-43.2617677-8.73173257 109.54355858 109.54355858 0 0 1-34.92693188-23.8138174 119.06908538 119.06908538 0 0 1-23.41691988-34.92693185 107.1621767 107.1621767 0 0 1 0-84.93594776 110.73424954 110.73424954 0 0 1 58.74074924-59.53454269 106.36838324 106.36838324 0 0 1 43.26176772-8.73173258 104.38389808 104.38389808 0 0 1 42.46797348 8.73173258 110.73424954 110.73424954 0 0 1 58.34385176 58.34385175 107.1621767 107.1621767 0 0 1 0 84.93594775 119.06908538 119.06908538 0 0 1-23.41691989 34.92693186 109.54355858 109.54355858 0 0 1-34.92693187 23.81381738 104.38389808 104.38389808 0 0 1-42.86487098 9.92242353z m47.23073728 119.0690854a178.60362807 178.60362807 0 0 0 178.60362885 177.41293789h146.45497484V711.83761522H733.48125366a79.37939051 79.37939051 0 1 1 0-158.75878104h146.45497484V453.45769989H733.48125366A178.60362807 178.60362807 0 0 0 554.87762481 632.45822471zM1050.99881495 413.76800425h6.7472482V116.4921875H177.82552082v791.015625h879.12674811v-58.34385175H733.48125366a218.29332373 218.29332373 0 0 1-212.73676649-169.07810128l-11.90690869-3.57207284a187.73225815 187.73225815 0 0 1-22.62312643-10.71621774 186.93846394 186.93846394 0 0 0-22.62312568-10.71621775 160.74326542 160.74326542 0 0 0-28.17968368-7.93793914 194.08260961 194.08260961 0 0 0-37.70521047-3.17517533 76.6011119 76.6011119 0 0 0-36.11762279 9.5255268 182.96949515 182.96949515 0 0 0-34.92693188 24.21071411 307.99203449 307.99203449 0 0 0-32.14865323 32.94244669q-15.47898076 18.25726014-28.17968293 36.51451952V204.20641387h702.50760443v209.56159038z m-16.66967169 264.33337006v-92.87388689h-284.57511461v93.2707836zM1050.99881495 453.45769989h-147.64566654V553.07883418H1050.99881495a79.37939051 79.37939051 0 1 1 0 158.75878104h-147.64566654v100.01803178H1050.99881495a178.20673135 178.20673135 0 1 0 0-357.20725617z" fill="#333333" p-id="985"></path></svg>