<?xml version="1.0" standalone="no"?><!DOCTYPE svg PUBLIC "-//W3C//DTD SVG 1.1//EN" "http://www.w3.org/Graphics/SVG/1.1/DTD/svg11.dtd"><svg t="1506000845964" class="icon" style="" viewBox="0 0 1138 1024" version="1.1" xmlns="http://www.w3.org/2000/svg" p-id="2434" xmlns:xlink="http://www.w3.org/1999/xlink" width="35.5625" height="32"><defs><style type="text/css"></style></defs><path d="M477.07687602 512.30844182q-20.35718077 0-37.93838308-7.71105375t-30.53577184-20.9740651-20.66562328-30.84421365-7.71105375-37.32149877 7.71105375-37.32149875 20.66562328-30.53577183 30.53577184-20.66562329 37.93838308-7.71105375q19.74029645 0 37.32149875 7.71105375t30.53577184 20.66562329 20.66562328 30.53577183 7.71105375 37.32149875-7.71105375 37.32149877-20.66562328 30.84421365-30.53577184 20.9740651-37.32149875 7.71105375zM959.48037804 859.61428833l-772.33911082 0 0-695.22857666 772.33911082 0 0 77.11053415 0 618.11804251zM882.36984388 241.49624582l-617.50115817 0 0 476.85154374q11.10391722-16.03899116 24.67537105-32.07798232t28.37667635-28.99356067 30.53577184-21.2825076 31.7695398-8.32793742q19.12341279 0 33.00330848 2.77597915t24.67537105 7.09416943 20.04873894 9.56170605 20.04873896 9.56170606 24.36692855 7.09416943 32.69486665 2.77597914 33.00330847-11.41235904 25.60069721-28.68511887 23.44160241-37.01305624 26.52602404-37.01305627 35.16240327-28.68511885 49.35074213-11.41235903q24.67537107 0 47.50008913 15.113665t42.25657271 39.17215106 35.7792876 53.66893174 28.68511885 57.98712203l0-436.75406583z" fill="#333333" p-id="2435"></path></svg>