<?xml version="1.0" standalone="no"?><!DOCTYPE svg PUBLIC "-//W3C//DTD SVG 1.1//EN" "http://www.w3.org/Graphics/SVG/1.1/DTD/svg11.dtd"><svg t="1506000781466" class="icon" style="" viewBox="0 0 1024 1024" version="1.1" xmlns="http://www.w3.org/2000/svg" p-id="1314" xmlns:xlink="http://www.w3.org/1999/xlink" width="32" height="32"><defs><style type="text/css"></style></defs><path d="M166.4 512c0-72.96 59.307-132.267 132.267-132.267h170.666v-81.066H298.667c-117.76 0-213.334 95.573-213.334 213.333s95.574 213.333 213.334 213.333h170.666v-81.066H298.667C225.707 644.267 166.4 584.96 166.4 512z m174.933 42.667h341.334v-85.334H341.333v85.334z m384-256H554.667v81.066h170.666c72.96 0 132.267 59.307 132.267 132.267s-59.307 132.267-132.267 132.267H554.667v81.066h170.666c117.76 0 213.334-95.573 213.334-213.333s-95.574-213.333-213.334-213.333z" fill="#333333" p-id="1315"></path></svg>