<?xml version="1.0" standalone="no"?><!DOCTYPE svg PUBLIC "-//W3C//DTD SVG 1.1//EN" "http://www.w3.org/Graphics/SVG/1.1/DTD/svg11.dtd"><svg t="1506000809315" class="icon" style="" viewBox="0 0 1024 1024" version="1.1" xmlns="http://www.w3.org/2000/svg" p-id="1940" xmlns:xlink="http://www.w3.org/1999/xlink" width="32" height="32"><defs><style type="text/css"></style></defs><path d="M142.859375 195.59375l105.46875 0 0 105.46875-105.46875 0 0-105.46875Z" fill="#333333" p-id="1941"></path><path d="M353.796875 195.59375l527.34375 0 0 105.46875-527.34375 0 0-105.46875Z" fill="#333333" p-id="1942"></path><path d="M142.859375 459.265625l105.46875 0 0 105.46875-105.46875 0 0-105.46875Z" fill="#333333" p-id="1943"></path><path d="M353.796875 459.265625l527.34375 0 0 105.46875-527.34375 0 0-105.46875Z" fill="#333333" p-id="1944"></path><path d="M142.859375 722.9375l105.46875 0 0 105.46875-105.46875 0 0-105.46875Z" fill="#333333" p-id="1945"></path><path d="M353.796875 722.9375l527.34375 0 0 105.46875-527.34375 0 0-105.46875Z" fill="#333333" p-id="1946"></path></svg>