<?xml version="1.0" standalone="no"?><!DOCTYPE svg PUBLIC "-//W3C//DTD SVG 1.1//EN" "http://www.w3.org/Graphics/SVG/1.1/DTD/svg11.dtd"><svg t="1506000838682" class="icon" style="" viewBox="0 0 1024 1024" version="1.1" xmlns="http://www.w3.org/2000/svg" p-id="2308" xmlns:xlink="http://www.w3.org/1999/xlink" width="32" height="32"><defs><style type="text/css"></style></defs><path d="M654.5573958 187.98118437l92.70644502 1e-8 0 300.46288622c0 114.88270957-103.75005762 208.01006894-231.76566299 208.01006895-128.01560537 0-231.76926035-93.12735937-231.76926035-208.01006895L283.72891748 187.98118437l92.70734414 1e-8 0 300.46288622c0 28.98015117 13.21833779 56.83156787 37.20957187 78.36476836 26.7082919 23.97054815 62.89885459 37.19608067 101.85234434 37.19608067 38.94989238 0 75.1413542-13.22553339 101.84874697-37.19608067 23.9921332-21.53230137 37.21047099-49.38461719 37.210471-78.36476836L654.5573958 187.98118437zM283.72891748 773.07319268l463.53492334 0 0 62.057925L283.72891748 835.1311168 283.72891748 773.07319268z" fill="#333333" p-id="2309"></path></svg>